<svg preserveAspectRatio="none" width="100%" height="100%" overflow="visible" style="display: block;" viewBox="0 0 31.992 31.992" fill="none" xmlns="http://www.w3.org/2000/svg">
<g id="Icon">
<path id="Vector" d="M19.995 2.66608H11.997C11.2608 2.66608 10.664 3.26288 10.664 3.99908V6.66508C10.664 7.40127 11.2608 7.99807 11.997 7.99807H19.995C20.7312 7.99807 21.328 7.40127 21.328 6.66508V3.99908C21.328 3.26288 20.7312 2.66608 19.995 2.66608Z" stroke="var(--stroke-0, #2B5434)" stroke-width="2.666" stroke-linecap="round" stroke-linejoin="round"/>
<path id="Vector_2" d="M21.328 5.33191H23.994C24.701 5.33191 25.3791 5.61279 25.8791 6.11277C26.3791 6.61274 26.66 7.29084 26.66 7.99791V26.6599C26.66 27.367 26.3791 28.0451 25.8791 28.545C25.3791 29.045 24.701 29.3259 23.994 29.3259H7.99799C7.29092 29.3259 6.61282 29.045 6.11285 28.545C5.61287 28.0451 5.33199 27.367 5.33199 26.6599V7.99791C5.33199 7.29084 5.61287 6.61274 6.11285 6.11277C6.61282 5.61279 7.29092 5.33191 7.99799 5.33191H10.664" stroke="var(--stroke-0, #2B5434)" stroke-width="2.666" stroke-linecap="round" stroke-linejoin="round"/>
<path id="Vector_3" d="M15.996 14.6631H21.328" stroke="var(--stroke-0, #2B5434)" stroke-width="2.666" stroke-linecap="round" stroke-linejoin="round"/>
<path id="Vector_4" d="M15.996 21.3279H21.328" stroke="var(--stroke-0, #2B5434)" stroke-width="2.666" stroke-linecap="round" stroke-linejoin="round"/>
<path id="Vector_5" d="M10.664 14.6631H10.6773" stroke="var(--stroke-0, #2B5434)" stroke-width="2.666" stroke-linecap="round" stroke-linejoin="round"/>
<path id="Vector_6" d="M10.664 21.3279H10.6773" stroke="var(--stroke-0, #2B5434)" stroke-width="2.666" stroke-linecap="round" stroke-linejoin="round"/>
</g>
</svg>
