<svg preserveAspectRatio="none" width="100%" height="100%" overflow="visible" style="display: block;" viewBox="0 0 23.9989 23.9989" fill="none" xmlns="http://www.w3.org/2000/svg">
<g id="Icon">
<path id="Vector" d="M17 2H7C4.23858 2 2 4.23858 2 7V17C2 19.7614 4.23858 22 7 22H17C19.7614 22 22 19.7614 22 17V7C22 4.23858 19.7614 2 17 2Z" stroke="var(--stroke-0, #2B5434)" stroke-width="1.99991" stroke-linecap="round" stroke-linejoin="round"/>
<path id="Vector_2" d="M15.9996 11.3695C16.1231 12.2017 15.9809 13.0517 15.5934 13.7985C15.2059 14.5453 14.5928 15.1509 13.8413 15.5291C13.0897 15.9074 12.2381 16.0391 11.4074 15.9054C10.5768 15.7717 9.8094 15.3795 9.21448 14.7846C8.61956 14.1897 8.22737 13.4223 8.09371 12.5917C7.96004 11.761 8.0917 10.9094 8.46997 10.1578C8.84823 9.40631 9.45383 8.7932 10.2006 8.4057C10.9474 8.0182 11.7974 7.87604 12.6296 7.99946C13.4786 8.12534 14.2645 8.52092 14.8713 9.12776C15.4782 9.73461 15.8738 10.5205 15.9996 11.3695Z" stroke="var(--stroke-0, #2B5434)" stroke-width="1.99991" stroke-linecap="round" stroke-linejoin="round"/>
<path id="Vector_3" d="M17.4992 6.49971H17.5092" stroke="var(--stroke-0, #2B5434)" stroke-width="1.99991" stroke-linecap="round" stroke-linejoin="round"/>
</g>
</svg>
