<svg preserveAspectRatio="none" width="100%" height="100%" overflow="visible" style="display: block;" viewBox="0 0 31.992 31.992" fill="none" xmlns="http://www.w3.org/2000/svg">
<g id="Icon">
<path id="Vector" d="M21.328 17.3289L28.2902 21.9704C28.3906 22.0372 28.5072 22.0755 28.6276 22.0813C28.748 22.0871 28.8678 22.06 28.9741 22.0031C29.0803 21.9462 29.1692 21.8616 29.2312 21.7582C29.2932 21.6547 29.3259 21.5365 29.326 21.4159V10.4906C29.326 10.3734 29.2951 10.2582 29.2364 10.1567C29.1776 10.0552 29.0932 9.97094 28.9915 9.91252C28.8898 9.85411 28.7745 9.82356 28.6572 9.82395C28.5399 9.82435 28.4248 9.85569 28.3236 9.91479L21.328 13.9964" stroke="var(--stroke-0, #2B5434)" stroke-width="2.666" stroke-linecap="round" stroke-linejoin="round"/>
<path id="Vector_2" d="M18.662 7.99799H5.332C3.85961 7.99799 2.666 9.1916 2.666 10.664V21.328C2.666 22.8004 3.85961 23.994 5.332 23.994H18.662C20.1344 23.994 21.328 22.8004 21.328 21.328V10.664C21.328 9.1916 20.1344 7.99799 18.662 7.99799Z" stroke="var(--stroke-0, #2B5434)" stroke-width="2.666" stroke-linecap="round" stroke-linejoin="round"/>
</g>
</svg>
