<svg preserveAspectRatio="none" width="100%" height="100%" overflow="visible" style="display: block;" viewBox="0 0 31.992 31.992" fill="none" xmlns="http://www.w3.org/2000/svg">
<g id="Icon">
<path id="Vector" d="M29.326 15.9959H26.0201C25.4376 15.9947 24.8706 16.1843 24.406 16.5358C23.9414 16.8872 23.6047 17.3812 23.4474 17.9421L20.3149 29.086C20.2947 29.1552 20.2526 29.216 20.1949 29.2593C20.1372 29.3025 20.0671 29.3259 19.995 29.3259C19.9229 29.3259 19.8527 29.3025 19.795 29.2593C19.7373 29.216 19.6953 29.1552 19.6751 29.086L12.3169 2.9059C12.2967 2.83668 12.2546 2.77587 12.1969 2.73261C12.1393 2.68934 12.0691 2.66596 11.997 2.66596C11.9249 2.66596 11.8547 2.68934 11.797 2.73261C11.7394 2.77587 11.6973 2.83668 11.6771 2.9059L8.54452 14.0498C8.38785 14.6085 8.05315 15.1009 7.59125 15.4521C7.12934 15.8033 6.56545 15.9943 5.98517 15.9959H2.666" stroke="var(--stroke-0, #2B5434)" stroke-width="2.666" stroke-linecap="round" stroke-linejoin="round"/>
</g>
</svg>
