<svg preserveAspectRatio="none" width="100%" height="100%" overflow="visible" style="display: block;" viewBox="0 0 17.9942 17.9942" fill="none" xmlns="http://www.w3.org/2000/svg">
<g id="Icon" clip-path="url(#clip0_1_582)">
<path id="Vector" d="M12.7459 1.49952H5.24832C3.17791 1.49952 1.49952 3.17792 1.49952 5.24832V12.7459C1.49952 14.8163 3.17791 16.4947 5.24832 16.4947H12.7459C14.8163 16.4947 16.4947 14.8163 16.4947 12.7459V5.24832C16.4947 3.17792 14.8163 1.49952 12.7459 1.49952Z" stroke="var(--stroke-0, #4A5565)" stroke-width="1.49952" stroke-linecap="round" stroke-linejoin="round"/>
<path id="Vector_2" d="M11.9962 8.525C12.0887 9.14899 11.9821 9.78626 11.6916 10.3462C11.401 10.9061 10.9414 11.3602 10.3779 11.6438C9.81444 11.9274 9.1759 12.0261 8.55311 11.9259C7.93031 11.8256 7.35497 11.5316 6.90892 11.0856C6.46287 10.6395 6.16883 10.0642 6.06861 9.44137C5.96839 8.81857 6.06711 8.18003 6.35071 7.61657C6.63432 7.05311 7.08837 6.59342 7.64829 6.30289C8.20821 6.01236 8.84549 5.90578 9.46947 5.99831C10.106 6.09269 10.6952 6.38928 11.1502 6.84427C11.6052 7.29925 11.9018 7.88851 11.9962 8.525Z" stroke="var(--stroke-0, #4A5565)" stroke-width="1.49952" stroke-linecap="round" stroke-linejoin="round"/>
<path id="Vector_3" d="M13.1208 4.87344H13.1283" stroke="var(--stroke-0, #4A5565)" stroke-width="1.49952" stroke-linecap="round" stroke-linejoin="round"/>
</g>
<defs>
<clipPath id="clip0_1_582">
<rect width="17.9942" height="17.9942" fill="white"/>
</clipPath>
</defs>
</svg>
