<svg preserveAspectRatio="none" width="100%" height="100%" overflow="visible" style="display: block;" viewBox="0 0 31.992 31.992" fill="none" xmlns="http://www.w3.org/2000/svg">
<g id="Icon">
<path id="Vector" d="M15.996 29.3259C23.3579 29.3259 29.326 23.3579 29.326 15.9959C29.326 8.634 23.3579 2.66596 15.996 2.66596C8.63403 2.66596 2.66599 8.634 2.66599 15.9959C2.66599 23.3579 8.63403 29.3259 15.996 29.3259Z" stroke="var(--stroke-0, #2B5434)" stroke-width="2.666" stroke-linecap="round" stroke-linejoin="round"/>
<path id="Vector_2" d="M15.996 23.994C20.4132 23.994 23.994 20.4132 23.994 15.996C23.994 11.5788 20.4132 7.99799 15.996 7.99799C11.5788 7.99799 7.99799 11.5788 7.99799 15.996C7.99799 20.4132 11.5788 23.994 15.996 23.994Z" stroke="var(--stroke-0, #2B5434)" stroke-width="2.666" stroke-linecap="round" stroke-linejoin="round"/>
<path id="Vector_3" d="M15.996 18.662C17.4684 18.662 18.662 17.4684 18.662 15.996C18.662 14.5236 17.4684 13.33 15.996 13.33C14.5236 13.33 13.33 14.5236 13.33 15.996C13.33 17.4684 14.5236 18.662 15.996 18.662Z" stroke="var(--stroke-0, #2B5434)" stroke-width="2.666" stroke-linecap="round" stroke-linejoin="round"/>
</g>
</svg>
