<svg preserveAspectRatio="none" width="100%" height="100%" overflow="visible" style="display: block;" viewBox="0 0 80.5147 21.7654" fill="none" xmlns="http://www.w3.org/2000/svg">
<g id="RUNEC">
<path id="Vector" d="M77.9603 12.9411C80.5375 12.2609 81.6067 16.028 79.057 16.7343C76.2879 17.4668 73.1898 17.8331 70.5578 16.4204C68.2548 15.1647 67.021 12.8626 67.1581 10.3774C67.4048 5.48547 72.0931 0.959763 77.3297 1.35217C79.9617 1.56145 79.9617 5.48547 77.3297 5.27619C74.4509 5.0669 71.8189 7.2382 71.3254 9.93269C70.5852 13.909 75.2734 13.6736 77.9603 12.9411Z" fill="var(--fill-0, #2B5434)"/>
<path id="Vector_2" d="M62.3336 13.6997C64.9656 13.8044 64.9656 17.7284 62.3336 17.6238C59.8387 17.5191 57.3438 17.6238 54.8762 18.0162C53.7247 18.1731 52.0797 17.5191 52.2717 16.1065C52.9022 11.293 53.6425 6.47954 54.5472 1.66607C54.6021 1.37831 54.7117 1.11671 54.8488 0.90743C55.1778 0.410387 55.7262 0.0441457 56.4938 0.0441457C58.4678 -0.0343353 60.4693 -0.00817548 62.4433 0.122627C65.0753 0.305747 65.0753 4.22977 62.4433 4.04665C61.045 3.96817 59.6742 3.91585 58.2759 3.91585C58.1114 4.93609 57.9195 5.95634 57.755 6.95042C58.4953 6.97658 59.2081 7.00274 59.9209 7.08122C61.045 7.18586 61.9772 7.89219 61.9772 9.04323C61.9772 10.0373 61.045 11.1099 59.9209 11.0052C58.9888 10.9006 58.0566 10.8744 57.1244 10.8744C56.9873 11.8685 56.8228 12.8626 56.6858 13.8567C58.5501 13.6997 60.4418 13.6213 62.3336 13.6997Z" fill="var(--fill-0, #2B5434)"/>
<path id="Vector_3" d="M45.5342 3.36648C45.8906 0.881272 49.866 1.95384 49.4822 4.41289C48.742 9.22636 47.8098 14.0137 46.7131 18.7486C46.3567 20.3183 43.6699 20.7891 42.957 19.2195C42.0797 17.3098 41.2298 15.4263 40.3524 13.5166C39.8041 15.7926 39.2832 18.0685 38.8445 20.3444C38.351 22.8296 34.3756 21.7832 34.8691 19.298C35.6916 15.1647 36.6786 11.0314 37.8301 6.95042C38.2688 5.4593 40.8734 4.88377 41.5862 6.47954L44.0263 11.8162C44.5746 9.01707 45.0955 6.19178 45.5342 3.36648Z" fill="var(--fill-0, #2B5434)"/>
<path id="Vector_4" d="M31.9987 4.36058C32.6292 9.0694 30.6278 16.5774 24.7881 17.5191C17.5775 18.6963 17.084 8.52004 17.413 4.09897C17.6049 1.61376 21.7174 1.5876 21.5255 4.09897C21.4158 5.66858 21.1691 15.0601 24.6236 13.4905C27.8313 12.0255 28.27 7.23819 27.8861 4.36058C27.5571 1.87536 31.6697 1.90152 31.9987 4.36058Z" fill="var(--fill-0, #2B5434)"/>
<path id="Vector_5" d="M14.2104 16.7605C15.8005 18.801 12.2089 20.763 10.6736 18.7486C9.00119 16.5774 6.97235 14.7723 4.64193 13.3073C4.45001 15.374 4.28551 17.4406 4.12101 19.5073C3.90168 22.0187 -0.210836 22.0187 0.00849816 19.5073C0.310082 15.6879 0.310082 11.6854 1.10517 7.91835C1.70834 5.01457 3.92909 2.03232 7.30135 1.87536C10.4817 1.74455 13.2782 4.67449 12.2364 7.65675C11.7154 9.14787 10.4817 10.5344 9.00119 11.5284C10.9752 13.0457 12.7024 14.7985 14.2104 16.7605ZM8.34319 6.29642C7.95935 4.51753 5.62893 7.18586 5.43701 7.68291C5.2451 8.10147 5.13543 8.54619 5.05318 8.99091C5.76601 8.91243 6.31435 8.54619 6.8901 8.04915C7.2191 7.76139 8.45285 6.71498 8.34319 6.29642Z" fill="var(--fill-0, #2B5434)"/>
</g>
</svg>
