<svg preserveAspectRatio="none" width="100%" height="100%" overflow="visible" style="display: block;" viewBox="0 0 23.9989 23.9989" fill="none" xmlns="http://www.w3.org/2000/svg">
<g id="Icon">
<path id="Vector" d="M15.9993 12.9997L21.2223 16.4817C21.2976 16.5318 21.385 16.5605 21.4754 16.5648C21.5657 16.5692 21.6555 16.5489 21.7353 16.5062C21.815 16.4635 21.8817 16.4 21.9282 16.3224C21.9747 16.2448 21.9992 16.1561 21.9993 16.0657V7.86966C21.9993 7.78168 21.9761 7.69526 21.9321 7.61911C21.888 7.54296 21.8246 7.47978 21.7483 7.43596C21.6721 7.39213 21.5856 7.36922 21.4976 7.36951C21.4096 7.36981 21.3233 7.39332 21.2473 7.43766L15.9993 10.4997" stroke="var(--stroke-0, #2B5434)" stroke-width="1.99991" stroke-linecap="round" stroke-linejoin="round"/>
<path id="Vector_2" d="M13.9999 5.99973H3.99991C2.89534 5.99973 1.99991 6.89516 1.99991 7.99973V15.9997C1.99991 17.1043 2.89534 17.9997 3.99991 17.9997H13.9999C15.1045 17.9997 15.9999 17.1043 15.9999 15.9997V7.99973C15.9999 6.89516 15.1045 5.99973 13.9999 5.99973Z" stroke="var(--stroke-0, #2B5434)" stroke-width="1.99991" stroke-linecap="round" stroke-linejoin="round"/>
</g>
</svg>
