<svg preserveAspectRatio="none" width="100%" height="100%" overflow="visible" style="display: block;" viewBox="0 0 31.992 31.992" fill="none" xmlns="http://www.w3.org/2000/svg">
<g id="Icon">
<path id="Vector" d="M21.328 27.993V25.327C21.328 23.9128 20.7662 22.5566 19.7663 21.5567C18.7663 20.5567 17.4101 19.995 15.996 19.995H7.99799C6.58386 19.995 5.22764 20.5567 4.2277 21.5567C3.22776 22.5566 2.66599 23.9128 2.66599 25.327V27.993" stroke="var(--stroke-0, #2B5434)" stroke-width="2.666" stroke-linecap="round" stroke-linejoin="round"/>
<path id="Vector_2" d="M11.997 14.663C14.9418 14.663 17.329 12.2758 17.329 9.33099C17.329 6.38621 14.9418 3.999 11.997 3.999C9.05221 3.999 6.66499 6.38621 6.66499 9.33099C6.66499 12.2758 9.05221 14.663 11.997 14.663Z" stroke="var(--stroke-0, #2B5434)" stroke-width="2.666" stroke-linecap="round" stroke-linejoin="round"/>
<path id="Vector_3" d="M29.326 27.993V25.327C29.3251 24.1456 28.9319 22.9979 28.2081 22.0642C27.4843 21.1305 26.4709 20.4636 25.327 20.1683" stroke="var(--stroke-0, #2B5434)" stroke-width="2.666" stroke-linecap="round" stroke-linejoin="round"/>
<path id="Vector_4" d="M21.328 4.17229C22.4749 4.46595 23.4915 5.13299 24.2174 6.06823C24.9434 7.00347 25.3374 8.15373 25.3374 9.33766C25.3374 10.5216 24.9434 11.6718 24.2174 12.6071C23.4915 13.5423 22.4749 14.2094 21.328 14.503" stroke="var(--stroke-0, #2B5434)" stroke-width="2.666" stroke-linecap="round" stroke-linejoin="round"/>
</g>
</svg>
