<svg preserveAspectRatio="none" width="100%" height="100%" overflow="visible" style="display: block;" viewBox="0 0 23.9989 23.9989" fill="none" xmlns="http://www.w3.org/2000/svg">
<g id="Icon">
<path id="Vector" d="M14.9996 1.99991H8.99964C8.44735 1.99991 7.99964 2.44763 7.99964 2.99991V4.99991C7.99964 5.55219 8.44735 5.99991 8.99964 5.99991H14.9996C15.5519 5.99991 15.9996 5.55219 15.9996 4.99991V2.99991C15.9996 2.44763 15.5519 1.99991 14.9996 1.99991Z" stroke="var(--stroke-0, #2B5434)" stroke-width="1.99991" stroke-linecap="round" stroke-linejoin="round"/>
<path id="Vector_2" d="M16 4H18C18.5304 4 19.0391 4.21071 19.4142 4.58579C19.7893 4.96086 20 5.46957 20 6V20C20 20.5304 19.7893 21.0391 19.4142 21.4142C19.0391 21.7893 18.5304 22 18 22H6C5.46957 22 4.96086 21.7893 4.58579 21.4142C4.21071 21.0391 4 20.5304 4 20V6C4 5.46957 4.21071 4.96086 4.58579 4.58579C4.96086 4.21071 5.46957 4 6 4H8" stroke="var(--stroke-0, #2B5434)" stroke-width="1.99991" stroke-linecap="round" stroke-linejoin="round"/>
<path id="Vector_3" d="M11.9995 10.9995H15.9995" stroke="var(--stroke-0, #2B5434)" stroke-width="1.99991" stroke-linecap="round" stroke-linejoin="round"/>
<path id="Vector_4" d="M11.9995 15.9993H15.9995" stroke="var(--stroke-0, #2B5434)" stroke-width="1.99991" stroke-linecap="round" stroke-linejoin="round"/>
<path id="Vector_5" d="M7.99964 10.9995H8.00964" stroke="var(--stroke-0, #2B5434)" stroke-width="1.99991" stroke-linecap="round" stroke-linejoin="round"/>
<path id="Vector_6" d="M7.99964 15.9993H8.00964" stroke="var(--stroke-0, #2B5434)" stroke-width="1.99991" stroke-linecap="round" stroke-linejoin="round"/>
</g>
</svg>
