<svg preserveAspectRatio="none" width="100%" height="100%" overflow="visible" style="display: block;" viewBox="0 0 31.992 31.992" fill="none" xmlns="http://www.w3.org/2000/svg">
<g id="Icon">
<path id="Vector" d="M26.66 17.3289C26.66 23.9939 21.9945 27.3264 16.4492 29.2593C16.1588 29.3577 15.8434 29.353 15.5561 29.2459C9.9975 27.3264 5.33201 23.9939 5.33201 17.3289V7.99794C5.33201 7.64441 5.47245 7.30535 5.72243 7.05537C5.97242 6.80538 6.31147 6.66494 6.665 6.66494C9.331 6.66494 12.6635 5.06534 14.9829 3.03919C15.2653 2.79791 15.6246 2.66535 15.996 2.66535C16.3674 2.66535 16.7267 2.79791 17.0091 3.03919C19.3418 5.07867 22.661 6.66494 25.327 6.66494C25.6805 6.66494 26.0196 6.80538 26.2696 7.05537C26.5195 7.30535 26.66 7.64441 26.66 7.99794V17.3289Z" stroke="var(--stroke-0, #2B5434)" stroke-width="2.666" stroke-linecap="round" stroke-linejoin="round"/>
<path id="Vector_2" d="M11.997 15.996L14.663 18.662L19.995 13.33" stroke="var(--stroke-0, #2B5434)" stroke-width="2.666" stroke-linecap="round" stroke-linejoin="round"/>
</g>
</svg>
