<svg preserveAspectRatio="none" width="100%" height="100%" overflow="visible" style="display: block;" viewBox="0 0 23.9989 23.9989" fill="none" xmlns="http://www.w3.org/2000/svg">
<g id="Icon">
<path id="Vector" d="M20 10C20 14.993 14.461 20.193 12.601 21.799C12.4277 21.9293 12.2168 21.9998 12 21.9998C11.7832 21.9998 11.5723 21.9293 11.399 21.799C9.539 20.193 4 14.993 4 10C4 7.87827 4.84285 5.84344 6.34315 4.34315C7.84344 2.84285 9.87827 2 12 2C14.1217 2 16.1566 2.84285 17.6569 4.34315C19.1571 5.84344 20 7.87827 20 10Z" stroke="var(--stroke-0, #2B5434)" stroke-width="1.99991" stroke-linecap="round" stroke-linejoin="round"/>
<path id="Vector_2" d="M11.9996 12.9997C13.6564 12.9997 14.9996 11.6565 14.9996 9.99969C14.9996 8.34283 13.6564 6.99969 11.9996 6.99969C10.3427 6.99969 8.9996 8.34283 8.9996 9.99969C8.9996 11.6565 10.3427 12.9997 11.9996 12.9997Z" stroke="var(--stroke-0, #2B5434)" stroke-width="1.99991" stroke-linecap="round" stroke-linejoin="round"/>
</g>
</svg>
