<svg preserveAspectRatio="none" width="100%" height="100%" overflow="visible" style="display: block;" viewBox="0 0 29.5582 19.3784" fill="none" xmlns="http://www.w3.org/2000/svg">
<g id="legs">
<path id="Vector" d="M3.24288 14.0561L2.92153 13.6522L2.38398 12.7163L3.24288 11.4977L5.05994 10.1752L7.71258 8.58194L10.6968 7.46728L12.1046 5.59516L14.2548 7.21082L13.9231 8.34893L12.7493 9.92331L5.7231 12.7163L3.24288 14.0561Z" fill="var(--fill-0, #F3AF6A)"/>
<path id="Vector_2" d="M25.6966 16.1574L23.7171 16.7855L23.0012 16.0003L20.6917 11.6035L20.3255 8.46284L18.1164 5.63537L18.6736 5.04166L20.7478 3.91523L21.125 3.68462L22.7834 5.95035L25.6966 16.1574Z" fill="var(--fill-0, #F3AF6A)"/>
<path id="Vector_3" d="M14.4819 7.23277L12.4811 6.32316L11.5374 5.3034L12.7079 2.47072L15.1488 3.36144L19.1503 0.509883L21.4845 1.37196e-06L21.9781 0.267532L20.7743 1.84124L21.4078 3.41495L21.2311 3.72969L19.4838 4.59838L17.8165 5.97065L16.1492 5.49224L14.4819 7.23277Z" fill="var(--fill-0, #2B5434)"/>
<path id="Vector_4" d="M25.8112 19.3374C25.735 19.3695 25.6512 19.3831 25.5677 19.3769L24.9774 19.3326C24.7849 19.3182 24.6191 19.2006 24.5534 19.0317L23.6943 16.8256L25.695 16.2396L26.218 16.801C26.3204 16.9108 26.4728 16.9691 26.6287 16.9579L28.4156 16.8299C28.4562 16.827 28.4962 16.8195 28.5348 16.8074L28.9965 16.6632C29.2414 16.5868 29.5025 16.7288 29.5507 16.9647C29.5733 17.0754 29.5441 17.1898 29.4703 17.2793L28.8945 17.9776C28.8452 18.0375 28.7807 18.0851 28.7069 18.1162L25.8112 19.3374Z" fill="var(--fill-0, #2B5434)"/>
<path id="Vector_5" d="M2.93975 16.7693C3.01587 16.9902 2.91018 17.2308 2.69179 17.3339L2.49542 17.4266C2.3408 17.4996 2.15732 17.4896 2.01245 17.4002L1.60184 17.1469C1.53152 17.1035 1.47404 17.0436 1.43489 16.973L0.159992 14.6723C0.101893 14.5674 0.0877623 14.4454 0.120467 14.331L0.215757 13.9976C0.250924 13.8746 0.33728 13.7706 0.454784 13.7099L2.37471 12.7169L3.3119 14.0184L2.54143 14.9321C2.43746 15.0554 2.40598 15.2205 2.45779 15.3708L2.93975 16.7693Z" fill="var(--fill-0, #2B5434)"/>
</g>
</svg>
