<svg preserveAspectRatio="none" width="100%" height="100%" overflow="visible" style="display: block;" viewBox="0 0 31.992 31.992" fill="none" xmlns="http://www.w3.org/2000/svg">
<g id="Icon">
<path id="Vector" d="M15.996 29.3261C23.3579 29.3261 29.326 23.358 29.326 15.9961C29.326 8.63412 23.3579 2.66608 15.996 2.66608C8.63404 2.66608 2.666 8.63412 2.666 15.9961C2.666 23.358 8.63404 29.3261 15.996 29.3261Z" stroke="var(--stroke-0, #2B5434)" stroke-width="2.666" stroke-linecap="round" stroke-linejoin="round"/>
<path id="Vector_2" d="M15.996 23.994C20.4132 23.994 23.994 20.4132 23.994 15.996C23.994 11.5788 20.4132 7.99799 15.996 7.99799C11.5788 7.99799 7.99799 11.5788 7.99799 15.996C7.99799 20.4132 11.5788 23.994 15.996 23.994Z" stroke="var(--stroke-0, #2B5434)" stroke-width="2.666" stroke-linecap="round" stroke-linejoin="round"/>
<path id="Vector_3" d="M15.996 18.6619C17.4684 18.6619 18.662 17.4683 18.662 15.9959C18.662 14.5235 17.4684 13.3299 15.996 13.3299C14.5236 13.3299 13.33 14.5235 13.33 15.9959C13.33 17.4683 14.5236 18.6619 15.996 18.6619Z" stroke="var(--stroke-0, #2B5434)" stroke-width="2.666" stroke-linecap="round" stroke-linejoin="round"/>
</g>
</svg>
