<svg width="563" height="242" viewBox="0 0 563 242" fill="none" xmlns="http://www.w3.org/2000/svg">
<path d="M78.4399 203L76.1931 200.04L72.4346 193.182L78.4399 184.252L91.1447 174.561L109.692 162.886L130.557 154.718L140.401 141L155.435 152.839L153.115 161.179L144.908 172.716L95.7814 193.182L78.4399 203Z" fill="#F3AF6A"/>
<path d="M235.435 218.397L221.594 223L216.588 217.247L200.441 185.027L197.88 162.014L182.435 141.295L186.33 136.944L200.833 128.69L203.47 127L215.066 143.603L235.435 218.397Z" fill="#F3AF6A"/>
<path d="M157.022 153L143.033 146.335L136.435 138.862L144.618 118.105L161.685 124.632L189.663 103.736L205.984 99.9999L209.435 101.96L201.018 113.492L205.448 125.024L204.212 127.33L191.995 133.696L180.337 143.751L168.68 140.246L157.022 153Z" fill="#2B5434"/>
<path d="M236.236 241.7C235.703 241.935 235.117 242.035 234.534 241.989L230.406 241.665C229.06 241.559 227.901 240.697 227.441 239.46L221.435 223.294L235.423 219L239.08 223.113C239.796 223.919 240.862 224.345 241.952 224.263L254.445 223.326C254.729 223.304 255.009 223.249 255.279 223.161L258.507 222.104C260.219 221.544 262.045 222.585 262.382 224.313C262.54 225.124 262.336 225.963 261.82 226.619L257.794 231.736C257.449 232.174 256.998 232.523 256.482 232.751L236.236 241.7Z" fill="#2B5434"/>
<path d="M76.3207 222.882C76.8529 224.5 76.114 226.263 74.587 227.019L73.214 227.698C72.1329 228.233 70.85 228.16 69.8371 227.505L66.9662 225.648C66.4745 225.33 66.0726 224.891 65.7989 224.374L56.8849 207.515C56.4787 206.747 56.3799 205.853 56.6086 205.014L57.2748 202.571C57.5207 201.67 58.1245 200.908 58.9461 200.463L72.3701 193.186L78.9228 202.723L73.5357 209.419C72.8088 210.322 72.5887 211.532 72.9509 212.634L76.3207 222.882Z" fill="#2B5434"/>
<path d="M545.091 94.8294C563.11 89.8453 570.586 117.449 552.759 122.625C533.397 127.993 511.736 130.676 493.333 120.325C477.231 111.124 468.604 94.2543 469.563 76.0433C471.288 40.1962 504.068 7.03294 540.682 9.90838C559.085 11.4419 559.085 40.1962 540.682 38.6627C520.554 37.1291 502.151 53.0398 498.701 72.7845C493.525 101.922 526.305 100.197 545.091 94.8294Z" fill="#2B5434"/>
<path d="M435.831 100.388C454.233 101.155 454.233 129.91 435.831 129.143C418.386 128.376 400.942 129.143 383.689 132.018C375.638 133.168 364.137 128.376 365.478 118.024C369.887 82.7525 375.063 47.4805 381.389 12.2086C381.773 10.1 382.539 8.183 383.498 6.64943C385.798 3.00722 389.632 0.323489 395 0.323489C408.802 -0.251601 422.795 -0.059908 436.597 0.898579C455 2.24044 455 30.9947 436.597 29.6529C426.821 29.0778 417.236 28.6944 407.46 28.6944C406.31 36.1705 404.968 43.6466 403.817 50.9311C408.993 51.1228 413.977 51.3145 418.961 51.8895C426.821 52.6563 433.339 57.8321 433.339 66.2667C433.339 73.5511 426.821 81.4106 418.961 80.6438C412.444 79.8771 405.926 79.6854 399.408 79.6854C398.45 86.9698 397.3 94.2542 396.341 101.539C409.377 100.388 422.604 99.8134 435.831 100.388Z" fill="#2B5434"/>
<path d="M318.371 24.6688C320.863 6.45773 348.659 14.3172 345.975 32.3366C340.799 67.6085 334.281 102.689 326.614 137.386C324.122 148.887 305.335 152.338 300.351 140.836C294.217 126.842 288.275 113.04 282.14 99.0466C278.306 115.724 274.664 132.402 271.597 149.079C268.147 167.29 240.351 159.622 243.801 141.411C249.552 111.123 256.453 80.8355 264.504 50.931C267.571 40.0044 285.783 35.7871 290.767 47.4805L307.827 86.5864C311.661 66.075 315.304 45.3719 318.371 24.6688Z" fill="#2B5434"/>
<path d="M223.732 31.9533C228.141 66.4584 214.147 121.475 173.316 128.376C122.9 137.002 119.449 62.4328 121.75 30.0363C123.092 11.8252 151.846 11.6336 150.504 30.0363C149.737 41.538 148.012 110.357 172.166 98.8549C194.594 88.12 197.661 53.0397 194.977 31.9533C192.677 13.7422 221.431 13.9339 223.732 31.9533Z" fill="#2B5434"/>
<path d="M99.3574 122.817C110.476 137.769 85.3636 152.146 74.6287 137.386C62.9353 121.475 48.7498 108.248 32.4557 97.513C31.1139 112.657 29.9637 127.801 28.8135 142.945C27.2799 161.348 -1.47436 161.348 0.059205 142.945C2.16785 114.957 2.16785 85.6279 7.72702 58.0238C11.9443 36.7456 27.4716 14.8924 51.0502 13.7422C73.2868 12.7837 92.8398 34.2536 85.5553 56.1069C81.9131 67.0335 73.2868 77.1933 62.9353 84.4778C76.7373 95.5961 88.8141 108.44 99.3574 122.817ZM58.3346 46.1387C55.6508 33.1034 39.3568 52.6563 38.0149 56.2985C36.673 59.3657 35.9062 62.6245 35.3312 65.8833C40.3152 65.3082 44.1491 62.6245 48.1747 58.9823C50.4751 56.8736 59.1014 49.2058 58.3346 46.1387Z" fill="#2B5434"/>
</svg>
